{
  "source": "C:\\Users\\Peter\\Desktop\\stuff\\MIUN\\quantitative_research\\video_compression\\videos\\HEVC_CLASS_B\\BasketballDrive_1920x1080_50.y4m",
  "output": "C:\\Users\\Peter\\Desktop\\stuff\\MIUN\\quantitative_research\\video_compression\\compressed_videos\\HEVC_CLASS_B\\vp9\\2\\BasketballDrive_1920x1080_50_vp9.webm",
  "codec": "vp9",
  "ok": "Input #0, yuv4mpegpipe, from 'C:\\Users\\Peter\\Desktop\\stuff\\MIUN\\quantitative_research\\video_compression\\videos\\HEVC_CLASS_B\\BasketballDrive_1920x1080_50.y4m':\n  Duration: 00:00:10.00, start: 0.000000, bitrate: 1244162 kb/s\n  Stream #0:0: Video: rawvideo (I420 / 0x30323449), yuv420p(progressive), 1920x1080, 50 fps, 50 tbr, 50 tbn\n[out#0/webm @ 000001aa96ed9a40] Codec AVOption b:a (set bitrate (in bits/s)) has not been used for any stream. The most likely reason is either wrong type (e.g. a video option with no video streams) or that it is a private option of some decoder which was not actually used for any stream.\nStream mapping:\n  Stream #0:0 -> #0:0 (rawvideo (native) -> vp9 (libvpx-vp9))\nPress [q] to stop, [?] for help\n[libvpx-vp9 @ 000001aa96edce40] v1.15.2-100-g40561f514\nOutput #0, webm, to 'C:\\Users\\Peter\\Desktop\\stuff\\MIUN\\quantitative_research\\video_compression\\compressed_videos\\HEVC_CLASS_B\\vp9\\2\\BasketballDrive_1920x1080_50_vp9.webm':\n  Metadata:\n    encoder         : Lavf62.3.100\n  Stream #0:0: Video: vp9, yuv420p(tv, progressive), 1920x1080, q=2-31, 2000 kb/s, 50 fps, 1k tbn\n    Metadata:\n      encoder         : Lavc62.11.100 libvpx-vp9\n    Side data:\n      cpb: bitrate max/min/avg: 0/0/0 buffer size: 2000000 vbv_delay: N/A\nframe=    1 fps=0.0 q=32.0 size=       0KiB time=N/A bitrate=N/A speed=N/A elapsed=0:00:00.53    \nframe=    4 fps=2.7 q=61.0 size=       0KiB time=00:00:00.08 bitrate=  48.2kbits/s speed=0.0548x elapsed=0:00:01.45    \nframe=    7 fps=3.4 q=57.0 size=       0KiB time=00:00:00.12 bitrate=  32.1kbits/s speed=0.0589x elapsed=0:00:02.03    \nframe=   10 fps=3.5 q=57.0 size=       0KiB time=00:00:00.18 bitrate=  21.4kbits/s speed=0.0632x elapsed=0:00:02.84    \nframe=   12 fps=3.3 q=48.0 size=       0KiB time=00:00:00.22 bitrate=  17.5kbits/s speed=0.0606x elapsed=0:00:03.62    \nframe=   15 fps=3.4 q=54.0 size=       0KiB time=00:00:00.26 bitrate=  14.8kbits/s speed=0.0588x elapsed=0:00:04.42    \nframe=   17 fps=3.2 q=53.0 size=       0KiB time=00:00:00.32 bitrate=  12.1kbits/s speed=0.0595x elapsed=0:00:05.38    \nframe=   19 fps=3.1 q=53.0 size=       0KiB time=00:00:00.38 bitrate=  10.1kbits/s speed=0.0623x elapsed=0:00:06.10    \nframe=   21 fps=3.1 q=53.0 size=       0KiB time=00:00:00.42 bitrate=   9.2kbits/s speed=0.0621x elapsed=0:00:06.76    \nframe=   22 fps=3.0 q=53.0 size=       0KiB time=00:00:00.44 bitrate=   8.8kbits/s speed=0.0596x elapsed=0:00:07.37    \nframe=   23 fps=2.9 q=40.0 size=       0KiB time=00:00:00.46 bitrate=   8.4kbits/s speed=0.0575x elapsed=0:00:08.00    \nframe=   26 fps=3.0 q=53.0 size=       0KiB time=00:00:00.50 bitrate=   7.7kbits/s speed=0.0574x elapsed=0:00:08.70    \nframe=   27 fps=2.9 q=54.0 size=       0KiB time=00:00:00.54 bitrate=   7.1kbits/s speed=0.0575x elapsed=0:00:09.39    \nframe=   28 fps=2.8 q=54.0 size=       0KiB time=00:00:00.56 bitrate=   6.9kbits/s speed=0.0562x elapsed=0:00:09.95    \nframe=   29 fps=2.8 q=55.0 size=       0KiB time=00:00:00.58 bitrate=   6.6kbits/s speed=0.0553x elapsed=0:00:10.49    \nframe=   29 fps=2.6 q=55.0 size=       0KiB time=00:00:00.58 bitrate=   6.6kbits/s speed=0.0526x elapsed=0:00:11.02    \nframe=   31 fps=2.7 q=56.0 size=       0KiB time=00:00:00.62 bitrate=   6.2kbits/s speed=0.0536x elapsed=0:00:11.56    \nframe=   32 fps=2.6 q=56.0 size=       0KiB time=00:00:00.64 bitrate=   6.0kbits/s speed=0.0528x elapsed=0:00:12.11    \nframe=   33 fps=2.6 q=56.0 size=       0KiB time=00:00:00.66 bitrate=   5.8kbits/s speed=0.0519x elapsed=0:00:12.71    \nframe=   35 fps=2.6 q=54.0 size=       0KiB time=00:00:00.70 bitrate=   5.5kbits/s speed=0.0525x elapsed=0:00:13.33    \nframe=   37 fps=2.7 q=54.0 size=       0KiB time=00:00:00.72 bitrate=   5.4kbits/s speed=0.0516x elapsed=0:00:13.94    \nframe=   39 fps=2.7 q=55.0 size=       0KiB time=00:00:00.78 bitrate=   4.9kbits/s speed=0.0533x elapsed=0:00:14.62    \nframe=   41 fps=2.7 q=55.0 size=       0KiB time=00:00:00.82 bitrate=   4.7kbits/s speed=0.0541x elapsed=0:00:15.16    \nframe=   42 fps=2.7 q=55.0 size=       0KiB time=00:00:00.84 bitrate=   4.6kbits/s speed=0.0534x elapsed=0:00:15.72    \nframe=   44 fps=2.7 q=56.0 size=       0KiB time=00:00:00.86 bitrate=   4.5kbits/s speed=0.0526x elapsed=0:00:16.36    \nframe=   44 fps=2.6 q=56.0 size=       0KiB time=00:00:00.88 bitrate=   4.4kbits/s speed=0.0514x elapsed=0:00:17.13    \nframe=   45 fps=2.5 q=40.0 size=       0KiB time=00:00:00.90 bitrate=   4.3kbits/s speed=0.051x elapsed=0:00:17.65    \nframe=   46 fps=2.5 q=56.0 size=       0KiB time=00:00:00.92 bitrate=   4.2kbits/s speed=0.0506x elapsed=0:00:18.16    \nframe=   47 fps=2.5 q=56.0 size=       0KiB time=00:00:00.94 bitrate=   4.1kbits/s speed=0.0503x elapsed=0:00:18.68    \nframe=   48 fps=2.5 q=56.0 size=       0KiB time=00:00:00.96 bitrate=   4.0kbits/s speed=0.05x elapsed=0:00:19.20    \nframe=   49 fps=2.5 q=57.0 size=       0KiB time=00:00:00.98 bitrate=   3.9kbits/s speed=0.0497x elapsed=0:00:19.71    \nframe=   50 fps=2.5 q=57.0 size=       0KiB time=00:00:01.00 bitrate=   3.9kbits/s speed=0.0494x elapsed=0:00:20.23    \nframe=   51 fps=2.5 q=57.0 size=       0KiB time=00:00:01.02 bitrate=   3.8kbits/s speed=0.0492x elapsed=0:00:20.75    \nframe=   52 fps=2.4 q=58.0 size=       0KiB time=00:00:01.04 bitrate=   3.7kbits/s speed=0.0489x elapsed=0:00:21.25    \nframe=   54 fps=2.5 q=58.0 size=       0KiB time=00:00:01.08 bitrate=   3.6kbits/s speed=0.0496x elapsed=0:00:21.78    \nframe=   55 fps=2.5 q=58.0 size=       0KiB time=00:00:01.10 bitrate=   3.5kbits/s speed=0.0493x elapsed=0:00:22.29    \nframe=   55 fps=2.4 q=58.0 size=       0KiB time=00:00:01.10 bitrate=   3.5kbits/s speed=0.0482x elapsed=0:00:22.81    \nframe=   56 fps=2.4 q=40.0 size=       0KiB time=00:00:01.12 bitrate=   3.4kbits/s speed=0.048x elapsed=0:00:23.32    \nframe=   57 fps=2.4 q=58.0 size=       0KiB time=00:00:01.14 bitrate=   3.4kbits/s speed=0.0478x elapsed=0:00:23.83    \nframe=   59 fps=2.4 q=57.0 size=       0KiB time=00:00:01.18 bitrate=   3.3kbits/s speed=0.0485x elapsed=0:00:24.35    \nframe=   60 fps=2.4 q=58.0 size=       0KiB time=00:00:01.20 bitrate=   3.2kbits/s speed=0.0482x elapsed=0:00:24.87    \nframe=   61 fps=2.4 q=58.0 size=       0KiB time=00:00:01.22 bitrate=   3.2kbits/s speed=0.048x elapsed=0:00:25.39    \nframe=   62 fps=2.4 q=58.0 size=       0KiB time=00:00:01.24 bitrate=   3.1kbits/s speed=0.0479x elapsed=0:00:25.90    \nframe=   64 fps=2.4 q=58.0 size=       0KiB time=00:00:01.28 bitrate=   3.0kbits/s speed=0.0485x elapsed=0:00:26.41    \nframe=   65 fps=2.4 q=58.0 size=       0KiB time=00:00:01.30 bitrate=   3.0kbits/s speed=0.0483x elapsed=0:00:26.94    \nframe=   66 fps=2.4 q=58.0 size=       0KiB time=00:00:01.32 bitrate=   2.9kbits/s speed=0.0481x elapsed=0:00:27.45    \nframe=   69 fps=2.5 q=59.0 size=       0KiB time=00:00:01.38 bitrate=   2.8kbits/s speed=0.0493x elapsed=0:00:27.97    \nframe=   71 fps=2.5 q=59.0 size=       0KiB time=00:00:01.42 bitrate=   2.7kbits/s speed=0.0498x elapsed=0:00:28.49    \nframe=   72 fps=2.5 q=59.0 size=       0KiB time=00:00:01.44 bitrate=   2.7kbits/s speed=0.0496x elapsed=0:00:29.01    \nframe=   73 fps=2.5 q=41.0 size=       0KiB time=00:00:01.46 bitrate=   2.6kbits/s speed=0.0494x elapsed=0:00:29.53    \nframe=   75 fps=2.5 q=58.0 size=       0KiB time=00:00:01.50 bitrate=   2.6kbits/s speed=0.0499x elapsed=0:00:30.04    \nframe=   78 fps=2.6 q=58.0 size=       0KiB time=00:00:01.56 bitrate=   2.5kbits/s speed=0.051x elapsed=0:00:30.56    \nframe=   79 fps=2.5 q=58.0 size=       0KiB time=00:00:01.58 bitrate=   2.4kbits/s speed=0.0508x elapsed=0:00:31.07    \nframe=   81 fps=2.6 q=58.0 size=       0KiB time=00:00:01.62 bitrate=   2.4kbits/s speed=0.0513x elapsed=0:00:31.58    \nframe=   82 fps=2.6 q=58.0 size=       0KiB time=00:00:01.64 bitrate=   2.4kbits/s speed=0.0511x elapsed=0:00:32.10    \nframe=   83 fps=2.5 q=59.0 size=       0KiB time=00:00:01.66 bitrate=   2.3kbits/s speed=0.0509x elapsed=0:00:32.61    \nframe=   85 fps=2.6 q=59.0 size=       0KiB time=00:00:01.70 bitrate=   2.3kbits/s speed=0.0513x elapsed=0:00:33.13    \nframe=   87 fps=2.6 q=58.0 size=       0KiB time=00:00:01.74 bitrate=   2.2kbits/s speed=0.0517x elapsed=0:00:33.65    \nframe=   89 fps=2.6 q=57.0 size=       0KiB time=00:00:01.78 bitrate=   2.2kbits/s speed=0.0521x elapsed=0:00:34.17    \nframe=   90 fps=2.6 q=46.0 size=       0KiB time=00:00:01.80 bitrate=   2.1kbits/s speed=0.0519x elapsed=0:00:34.68    \nframe=   92 fps=2.6 q=56.0 size=       0KiB time=00:00:01.84 bitrate=   2.1kbits/s speed=0.0523x elapsed=0:00:35.19    \nframe=   94 fps=2.6 q=57.0 size=       0KiB time=00:00:01.88 bitrate=   2.1kbits/s speed=0.0526x elapsed=0:00:35.71    \nframe=   95 fps=2.6 q=57.0 size=       0KiB time=00:00:01.90 bitrate=   2.0kbits/s speed=0.0524x elapsed=0:00:36.23    \nframe=   97 fps=2.6 q=58.0 size=       0KiB time=00:00:01.94 bitrate=   2.0kbits/s speed=0.0528x elapsed=0:00:36.74    \nframe=   99 fps=2.7 q=57.0 size=       0KiB time=00:00:01.98 bitrate=   1.9kbits/s speed=0.0531x elapsed=0:00:37.27    \nframe=  101 fps=2.7 q=58.0 size=       0KiB time=00:00:02.02 bitrate=   1.9kbits/s speed=0.0535x elapsed=0:00:37.77    \nframe=  102 fps=2.7 q=45.0 size=       0KiB time=00:00:02.04 bitrate=   1.9kbits/s speed=0.0533x elapsed=0:00:38.29    \nframe=  105 fps=2.7 q=57.0 size=       0KiB time=00:00:02.10 bitrate=   1.8kbits/s speed=0.0541x elapsed=0:00:38.81    \nframe=  107 fps=2.7 q=58.0 size=       0KiB time=00:00:02.14 bitrate=   1.8kbits/s speed=0.0544x elapsed=0:00:39.32    \nframe=  107 fps=2.7 q=58.0 size=       0KiB time=00:00:02.14 bitrate=   1.8kbits/s speed=0.0537x elapsed=0:00:39.83    \nframe=  110 fps=2.7 q=57.0 size=       0KiB time=00:00:02.20 bitrate=   1.8kbits/s speed=0.0545x elapsed=0:00:40.35    \nframe=  112 fps=2.7 q=57.0 size=       0KiB time=00:00:02.24 bitrate=   1.7kbits/s speed=0.0548x elapsed=0:00:40.87    \nframe=  113 fps=2.7 q=57.0 size=       0KiB time=00:00:02.26 bitrate=   1.7kbits/s speed=0.0546x elapsed=0:00:41.39    \nframe=  114 fps=2.7 q=44.0 size=       0KiB time=00:00:02.28 bitrate=   1.7kbits/s speed=0.0544x elapsed=0:00:41.90    \nframe=  116 fps=2.7 q=57.0 size=       0KiB time=00:00:02.32 bitrate=   1.7kbits/s speed=0.0547x elapsed=0:00:42.42    \nframe=  119 fps=2.8 q=57.0 size=       0KiB time=00:00:02.38 bitrate=   1.6kbits/s speed=0.0554x elapsed=0:00:42.94    \nframe=  119 fps=2.7 q=57.0 size=       0KiB time=00:00:02.38 bitrate=   1.6kbits/s speed=0.0548x elapsed=0:00:43.45    \nframe=  121 fps=2.8 q=55.0 size=       0KiB time=00:00:02.44 bitrate=   1.6kbits/s speed=0.0555x elapsed=0:00:43.96    \nframe=  123 fps=2.8 q=55.0 size=       0KiB time=00:00:02.46 bitrate=   1.6kbits/s speed=0.0553x elapsed=0:00:44.47    \nframe=  125 fps=2.8 q=56.0 size=       0KiB time=00:00:02.50 bitrate=   1.5kbits/s speed=0.0556x elapsed=0:00:45.00    \nframe=  127 fps=2.8 q=56.0 size=       0KiB time=00:00:02.54 bitrate=   1.5kbits/s speed=0.0558x elapsed=0:00:45.51    \nframe=  128 fps=2.8 q=56.0 size=       0KiB time=00:00:02.56 bitrate=   1.5kbits/s speed=0.0556x elapsed=0:00:46.02    \nframe=  130 fps=2.8 q=58.0 size=     512KiB time=00:00:02.60 bitrate=1613.2kbits/s speed=0.0559x elapsed=0:00:46.54    \nframe=  133 fps=2.8 q=58.0 size=     512KiB time=00:00:02.66 bitrate=1576.8kbits/s speed=0.0565x elapsed=0:00:47.06    \nframe=  135 fps=2.8 q=44.0 size=     512KiB time=00:00:02.70 bitrate=1553.4kbits/s speed=0.0567x elapsed=0:00:47.58    \nframe=  138 fps=2.9 q=56.0 size=     512KiB time=00:00:02.76 bitrate=1519.7kbits/s speed=0.0574x elapsed=0:00:48.08    \nframe=  140 fps=2.9 q=57.0 size=     512KiB time=00:00:02.80 bitrate=1498.0kbits/s speed=0.0576x elapsed=0:00:48.60    \nframe=  142 fps=2.9 q=57.0 size=     512KiB time=00:00:02.84 bitrate=1476.9kbits/s speed=0.0578x elapsed=0:00:49.12    \nframe=  145 fps=2.9 q=57.0 size=     512KiB time=00:00:02.90 bitrate=1446.3kbits/s speed=0.0584x elapsed=0:00:49.64    \nframe=  146 fps=2.9 q=57.0 size=     512KiB time=00:00:02.92 bitrate=1436.4kbits/s speed=0.0582x elapsed=0:00:50.15    \nframe=  148 fps=2.9 q=58.0 size=     512KiB time=00:00:02.96 bitrate=1417.0kbits/s speed=0.0584x elapsed=0:00:50.66    \nframe=  151 fps=2.9 q=58.0 size=     512KiB time=00:00:03.02 bitrate=1388.8kbits/s speed=0.059x elapsed=0:00:51.22    \nframe=  152 fps=2.9 q=58.0 size=     512KiB time=00:00:03.04 bitrate=1379.7kbits/s speed=0.0587x elapsed=0:00:51.75    \nframe=  154 fps=2.9 q=59.0 size=     512KiB time=00:00:03.08 bitrate=1361.8kbits/s speed=0.0589x elapsed=0:00:52.25    \nframe=  156 fps=3.0 q=58.0 size=     512KiB time=00:00:03.12 bitrate=1344.3kbits/s speed=0.0591x elapsed=0:00:52.78    \nframe=  158 fps=3.0 q=58.0 size=     512KiB time=00:00:03.16 bitrate=1327.3kbits/s speed=0.0593x elapsed=0:00:53.32    \nframe=  159 fps=3.0 q=40.0 size=     512KiB time=00:00:03.18 bitrate=1319.0kbits/s speed=0.059x elapsed=0:00:53.86    \nframe=  162 fps=3.0 q=56.0 size=     512KiB time=00:00:03.24 bitrate=1294.5kbits/s speed=0.0595x elapsed=0:00:54.42    \nframe=  165 fps=3.0 q=57.0 size=     512KiB time=00:00:03.30 bitrate=1271.0kbits/s speed=0.06x elapsed=0:00:54.98    \nframe=  167 fps=3.0 q=57.0 size=     512KiB time=00:00:03.34 bitrate=1255.8kbits/s speed=0.0602x elapsed=0:00:55.50    \nframe=  169 fps=3.0 q=57.0 size=     512KiB time=00:00:03.38 bitrate=1240.9kbits/s speed=0.0603x elapsed=0:00:56.03    \nframe=  170 fps=3.0 q=40.0 size=     512KiB time=00:00:03.40 bitrate=1233.6kbits/s speed=0.0601x elapsed=0:00:56.58    \nframe=  173 fps=3.0 q=57.0 size=     512KiB time=00:00:03.46 bitrate=1212.2kbits/s speed=0.0606x elapsed=0:00:57.10    \nframe=  175 fps=3.0 q=57.0 size=     512KiB time=00:00:03.50 bitrate=1198.4kbits/s speed=0.0607x elapsed=0:00:57.63    \nframe=  178 fps=3.1 q=57.0 size=     512KiB time=00:00:03.56 bitrate=1178.2kbits/s speed=0.0612x elapsed=0:00:58.17    \nframe=  180 fps=3.1 q=57.0 size=     512KiB time=00:00:03.60 bitrate=1165.1kbits/s speed=0.0613x elapsed=0:00:58.70    \nframe=  181 fps=3.1 q=40.0 size=     512KiB time=00:00:03.62 bitrate=1158.6kbits/s speed=0.061x elapsed=0:00:59.34    \nframe=  184 fps=3.1 q=56.0 size=     512KiB time=00:00:03.68 bitrate=1139.8kbits/s speed=0.0614x elapsed=0:00:59.88    \nframe=  186 fps=3.1 q=56.0 size=     512KiB time=00:00:03.72 bitrate=1127.5kbits/s speed=0.0616x elapsed=0:01:00.40    \nframe=  188 fps=3.1 q=56.0 size=     512KiB time=00:00:03.76 bitrate=1115.5kbits/s speed=0.0617x elapsed=0:01:00.96    \nframe=  190 fps=3.1 q=56.0 size=     512KiB time=00:00:03.80 bitrate=1103.8kbits/s speed=0.0618x elapsed=0:01:01.50    \nframe=  191 fps=3.1 q=56.0 size=     512KiB time=00:00:03.82 bitrate=1098.0kbits/s speed=0.0616x elapsed=0:01:02.00    \nframe=  192 fps=3.1 q=39.0 size=     512KiB time=00:00:03.84 bitrate=1092.3kbits/s speed=0.0614x elapsed=0:01:02.56    \nframe=  194 fps=3.1 q=55.0 size=     512KiB time=00:00:03.88 bitrate=1081.0kbits/s speed=0.0615x elapsed=0:01:03.07    \nframe=  196 fps=3.1 q=55.0 size=     512KiB time=00:00:03.92 bitrate=1070.0kbits/s speed=0.0616x elapsed=0:01:03.59    \nframe=  197 fps=3.1 q=55.0 size=     512KiB time=00:00:03.94 bitrate=1064.5kbits/s speed=0.0615x elapsed=0:01:04.11    \nframe=  199 fps=3.1 q=56.0 size=     512KiB time=00:00:03.98 bitrate=1053.8kbits/s speed=0.0616x elapsed=0:01:04.62    \nframe=  201 fps=3.1 q=56.0 size=     512KiB time=00:00:04.02 bitrate=1043.4kbits/s speed=0.0617x elapsed=0:01:05.13    \nframe=  202 fps=3.1 q=56.0 size=     512KiB time=00:00:04.04 bitrate=1038.2kbits/s speed=0.0615x elapsed=0:01:05.65    \nframe=  203 fps=3.1 q=41.0 size=     512KiB time=00:00:04.06 bitrate=1033.1kbits/s speed=0.0613x elapsed=0:01:06.18    \nframe=  205 fps=3.1 q=54.0 size=     512KiB time=00:00:04.10 bitrate=1023.0kbits/s speed=0.0615x elapsed=0:01:06.71    \nframe=  207 fps=3.1 q=55.0 size=     512KiB time=00:00:04.14 bitrate=1013.1kbits/s speed=0.0616x elapsed=0:01:07.23    \nframe=  208 fps=3.1 q=56.0 size=     512KiB time=00:00:04.16 bitrate=1008.2kbits/s speed=0.0614x elapsed=0:01:07.74    \nframe=  210 fps=3.1 q=56.0 size=     512KiB time=00:00:04.20 bitrate= 998.6kbits/s speed=0.0615x elapsed=0:01:08.26    \nframe=  212 fps=3.1 q=57.0 size=     512KiB time=00:00:04.24 bitrate= 989.2kbits/s speed=0.0616x elapsed=0:01:08.77    \nframe=  213 fps=3.1 q=57.0 size=     512KiB time=00:00:04.26 bitrate= 984.6kbits/s speed=0.0615x elapsed=0:01:09.28    \nframe=  214 fps=3.1 q=46.0 size=     512KiB time=00:00:04.28 bitrate= 980.0kbits/s speed=0.0613x elapsed=0:01:09.81    \nframe=  216 fps=3.1 q=58.0 size=     512KiB time=00:00:04.32 bitrate= 970.9kbits/s speed=0.0614x elapsed=0:01:10.31    \nframe=  218 fps=3.1 q=58.0 size=     512KiB time=00:00:04.36 bitrate= 962.0kbits/s speed=0.0615x elapsed=0:01:10.83    \nframe=  219 fps=3.1 q=58.0 size=     512KiB time=00:00:04.38 bitrate= 957.6kbits/s speed=0.0614x elapsed=0:01:11.35    \nframe=  220 fps=3.1 q=45.0 size=     512KiB time=00:00:04.40 bitrate= 953.3kbits/s speed=0.0612x elapsed=0:01:11.87    \nframe=  222 fps=3.1 q=56.0 size=     512KiB time=00:00:04.44 bitrate= 944.7kbits/s speed=0.0613x elapsed=0:01:12.38    \nframe=  223 fps=3.1 q=56.0 size=     512KiB time=00:00:04.46 bitrate= 940.4kbits/s speed=0.0612x elapsed=0:01:12.90    \nframe=  225 fps=3.1 q=56.0 size=     512KiB time=00:00:04.50 bitrate= 932.1kbits/s speed=0.0613x elapsed=0:01:13.41    \nframe=  226 fps=3.1 q=45.0 size=     512KiB time=00:00:04.52 bitrate= 927.9kbits/s speed=0.0611x elapsed=0:01:13.93    \nframe=  227 fps=3.0 q=56.0 size=     512KiB time=00:00:04.54 bitrate= 923.9kbits/s speed=0.061x elapsed=0:01:14.45    \nframe=  229 fps=3.1 q=54.0 size=     512KiB time=00:00:04.58 bitrate= 915.8kbits/s speed=0.0611x elapsed=0:01:14.98    \nframe=  231 fps=3.1 q=54.0 size=     512KiB time=00:00:04.62 bitrate= 907.9kbits/s speed=0.0612x elapsed=0:01:15.49    \nframe=  232 fps=3.1 q=43.0 size=     512KiB time=00:00:04.64 bitrate= 903.9kbits/s speed=0.061x elapsed=0:01:16.01    \nframe=  234 fps=3.1 q=53.0 size=     512KiB time=00:00:04.68 bitrate= 896.2kbits/s speed=0.0612x elapsed=0:01:16.52    \nframe=  235 fps=3.1 q=53.0 size=     512KiB time=00:00:04.70 bitrate= 892.4kbits/s speed=0.061x elapsed=0:01:17.03    \nframe=  237 fps=3.1 q=53.0 size=     512KiB time=00:00:04.74 bitrate= 884.9kbits/s speed=0.0611x elapsed=0:01:17.56    \nframe=  237 fps=3.0 q=53.0 size=     512KiB time=00:00:04.74 bitrate= 884.9kbits/s speed=0.0607x elapsed=0:01:18.07    \nframe=  237 fps=3.0 q=53.0 size=     512KiB time=00:00:04.74 bitrate= 884.9kbits/s speed=0.0603x elapsed=0:01:18.58    \nframe=  239 fps=3.0 q=60.0 size=     512KiB time=00:00:04.78 bitrate= 877.5kbits/s speed=0.0604x elapsed=0:01:19.10    \nframe=  241 fps=3.0 q=59.0 size=     512KiB time=00:00:04.82 bitrate= 870.2kbits/s speed=0.0605x elapsed=0:01:19.62    \nframe=  243 fps=3.0 q=60.0 size=     512KiB time=00:00:04.86 bitrate= 863.0kbits/s speed=0.0606x elapsed=0:01:20.14    \nframe=  244 fps=3.0 q=60.0 size=     512KiB time=00:00:04.88 bitrate= 859.5kbits/s speed=0.0605x elapsed=0:01:20.65    \nframe=  246 fps=3.0 q=60.0 size=     512KiB time=00:00:04.92 bitrate= 852.5kbits/s speed=0.0606x elapsed=0:01:21.16    \nframe=  247 fps=3.0 q=45.0 size=     512KiB time=00:00:04.94 bitrate= 849.0kbits/s speed=0.0605x elapsed=0:01:21.68    \nframe=  248 fps=3.0 q=55.0 size=     512KiB time=00:00:04.96 bitrate= 845.6kbits/s speed=0.0603x elapsed=0:01:22.19    \nframe=  250 fps=3.0 q=56.0 size=     512KiB time=00:00:05.00 bitrate= 838.9kbits/s speed=0.0605x elapsed=0:01:22.70    \nframe=  251 fps=3.0 q=56.0 size=     512KiB time=00:00:05.02 bitrate= 835.5kbits/s speed=0.0603x elapsed=0:01:23.23    \nframe=  252 fps=3.0 q=45.0 size=     512KiB time=00:00:05.04 bitrate= 832.2kbits/s speed=0.0602x elapsed=0:01:23.75    \nframe=  254 fps=3.0 q=56.0 size=     512KiB time=00:00:05.08 bitrate= 825.7kbits/s speed=0.0603x elapsed=0:01:24.28    \nframe=  255 fps=3.0 q=56.0 size=     512KiB time=00:00:05.10 bitrate= 822.4kbits/s speed=0.0601x elapsed=0:01:24.80    \nframe=  256 fps=3.0 q=56.0 size=     512KiB time=00:00:05.12 bitrate= 819.2kbits/s speed=0.06x elapsed=0:01:25.32    \nframe=  256 fps=3.0 q=56.0 size=     512KiB time=00:00:05.12 bitrate= 819.2kbits/s speed=0.0596x elapsed=0:01:25.83    \nframe=  258 fps=3.0 q=55.0 size=    1024KiB time=00:00:05.16 bitrate=1625.7kbits/s speed=0.0598x elapsed=0:01:26.35    \nframe=  259 fps=3.0 q=54.0 size=    1024KiB time=00:00:05.18 bitrate=1619.4kbits/s speed=0.0596x elapsed=0:01:26.87    \nframe=  261 fps=3.0 q=55.0 size=    1024KiB time=00:00:05.22 bitrate=1607.0kbits/s speed=0.0597x elapsed=0:01:27.38    \nframe=  262 fps=3.0 q=55.0 size=    1024KiB time=00:00:05.24 bitrate=1600.9kbits/s speed=0.0596x elapsed=0:01:27.90    \nframe=  263 fps=3.0 q=43.0 size=    1024KiB time=00:00:05.26 bitrate=1594.8kbits/s speed=0.0595x elapsed=0:01:28.41    \nframe=  265 fps=3.0 q=54.0 size=    1024KiB time=00:00:05.30 bitrate=1582.8kbits/s speed=0.0596x elapsed=0:01:28.92    \nframe=  266 fps=3.0 q=54.0 size=    1024KiB time=00:00:05.32 bitrate=1576.8kbits/s speed=0.0595x elapsed=0:01:29.44    \nframe=  268 fps=3.0 q=55.0 size=    1024KiB time=00:00:05.36 bitrate=1565.0kbits/s speed=0.0596x elapsed=0:01:29.96    \nframe=  268 fps=3.0 q=55.0 size=    1024KiB time=00:00:05.36 bitrate=1565.0kbits/s speed=0.0592x elapsed=0:01:30.48    \nframe=  269 fps=3.0 q=31.0 size=    1024KiB time=00:00:05.38 bitrate=1559.2kbits/s speed=0.0591x elapsed=0:01:31.00    \nframe=  271 fps=3.0 q=58.0 size=    1024KiB time=00:00:05.42 bitrate=1547.7kbits/s speed=0.0592x elapsed=0:01:31.53    \nframe=  273 fps=3.0 q=58.0 size=    1024KiB time=00:00:05.46 bitrate=1536.4kbits/s speed=0.0593x elapsed=0:01:32.04    \nframe=  275 fps=3.0 q=57.0 size=    1024KiB time=00:00:05.50 bitrate=1525.2kbits/s speed=0.0594x elapsed=0:01:32.55    \nframe=  276 fps=3.0 q=57.0 size=    1024KiB time=00:00:05.52 bitrate=1519.7kbits/s speed=0.0593x elapsed=0:01:33.06    \nframe=  278 fps=3.0 q=58.0 size=    1024KiB time=00:00:05.56 bitrate=1508.7kbits/s speed=0.0594x elapsed=0:01:33.58    \nframe=  279 fps=3.0 q=58.0 size=    1024KiB time=00:00:05.58 bitrate=1503.3kbits/s speed=0.0593x elapsed=0:01:34.10    \nframe=  280 fps=3.0 q=40.0 size=    1024KiB time=00:00:05.60 bitrate=1498.0kbits/s speed=0.0592x elapsed=0:01:34.61    \nframe=  281 fps=3.0 q=53.0 size=    1024KiB time=00:00:05.62 bitrate=1492.6kbits/s speed=0.0591x elapsed=0:01:35.14    \nframe=  283 fps=3.0 q=54.0 size=    1024KiB time=00:00:05.66 bitrate=1482.1kbits/s speed=0.0592x elapsed=0:01:35.66    \nframe=  284 fps=3.0 q=55.0 size=    1024KiB time=00:00:05.68 bitrate=1476.9kbits/s speed=0.0591x elapsed=0:01:36.16    \nframe=  285 fps=2.9 q=55.0 size=    1024KiB time=00:00:05.70 bitrate=1471.7kbits/s speed=0.059x elapsed=0:01:36.68    \nframe=  287 fps=3.0 q=56.0 size=    1024KiB time=00:00:05.74 bitrate=1461.4kbits/s speed=0.0591x elapsed=0:01:37.19    \nframe=  288 fps=2.9 q=56.0 size=    1024KiB time=00:00:05.76 bitrate=1456.4kbits/s speed=0.0589x elapsed=0:01:37.71    \nframe=  289 fps=2.9 q=56.0 size=    1024KiB time=00:00:05.78 bitrate=1451.3kbits/s speed=0.0588x elapsed=0:01:38.23    \nframe=  290 fps=2.9 q=56.0 size=    1024KiB time=00:00:05.80 bitrate=1446.3kbits/s speed=0.0587x elapsed=0:01:38.76    \nframe=  291 fps=2.9 q=43.0 size=    1024KiB time=00:00:05.82 bitrate=1441.3kbits/s speed=0.0586x elapsed=0:01:39.27    \nframe=  293 fps=2.9 q=56.0 size=    1024KiB time=00:00:05.86 bitrate=1431.5kbits/s speed=0.0587x elapsed=0:01:39.79    \nframe=  294 fps=2.9 q=56.0 size=    1024KiB time=00:00:05.88 bitrate=1426.6kbits/s speed=0.0586x elapsed=0:01:40.30    \nframe=  296 fps=2.9 q=57.0 size=    1024KiB time=00:00:05.92 bitrate=1417.0kbits/s speed=0.0587x elapsed=0:01:40.82    \nframe=  296 fps=2.9 q=57.0 size=    1024KiB time=00:00:05.92 bitrate=1417.0kbits/s speed=0.0584x elapsed=0:01:41.33    \nframe=  297 fps=2.9 q=43.0 size=    1024KiB time=00:00:05.94 bitrate=1412.2kbits/s speed=0.0583x elapsed=0:01:41.85    \nframe=  299 fps=2.9 q=56.0 size=    1024KiB time=00:00:05.98 bitrate=1402.8kbits/s speed=0.0584x elapsed=0:01:42.37    \nframe=  300 fps=2.9 q=57.0 size=    1024KiB time=00:00:06.00 bitrate=1398.1kbits/s speed=0.0583x elapsed=0:01:42.88    \nframe=  301 fps=2.9 q=58.0 size=    1024KiB time=00:00:06.02 bitrate=1393.5kbits/s speed=0.0582x elapsed=0:01:43.40    \nframe=  302 fps=2.9 q=58.0 size=    1024KiB time=00:00:06.04 bitrate=1388.8kbits/s speed=0.0581x elapsed=0:01:43.92    \nframe=  303 fps=2.9 q=44.0 size=    1024KiB time=00:00:06.06 bitrate=1384.3kbits/s speed=0.058x elapsed=0:01:44.45    \nframe=  305 fps=2.9 q=57.0 size=    1024KiB time=00:00:06.10 bitrate=1375.2kbits/s speed=0.0581x elapsed=0:01:44.96    \nframe=  306 fps=2.9 q=58.0 size=    1024KiB time=00:00:06.12 bitrate=1370.7kbits/s speed=0.058x elapsed=0:01:45.48    \nframe=  307 fps=2.9 q=58.0 size=    1024KiB time=00:00:06.14 bitrate=1366.2kbits/s speed=0.0579x elapsed=0:01:45.99    \nframe=  308 fps=2.9 q=58.0 size=    1024KiB time=00:00:06.16 bitrate=1361.8kbits/s speed=0.0578x elapsed=0:01:46.51    \nframe=  308 fps=2.9 q=58.0 size=    1024KiB time=00:00:06.16 bitrate=1361.8kbits/s speed=0.0575x elapsed=0:01:47.04    \nframe=  310 fps=2.9 q=58.0 size=    1024KiB time=00:00:06.20 bitrate=1353.0kbits/s speed=0.0576x elapsed=0:01:47.56    \nframe=  311 fps=2.9 q=58.0 size=    1024KiB time=00:00:06.22 bitrate=1348.7kbits/s speed=0.0576x elapsed=0:01:48.07    \nframe=  313 fps=2.9 q=58.0 size=    1024KiB time=00:00:06.26 bitrate=1340.0kbits/s speed=0.0576x elapsed=0:01:48.59    \nframe=  315 fps=2.9 q=59.0 size=    1024KiB time=00:00:06.30 bitrate=1331.5kbits/s speed=0.0577x elapsed=0:01:49.13    \nframe=  316 fps=2.9 q=59.0 size=    1024KiB time=00:00:06.32 bitrate=1327.3kbits/s speed=0.0576x elapsed=0:01:49.65    \nframe=  319 fps=2.9 q=58.0 size=    1024KiB time=00:00:06.36 bitrate=1319.0kbits/s speed=0.0577x elapsed=0:01:50.17    \nframe=  319 fps=2.9 q=58.0 size=    1024KiB time=00:00:06.38 bitrate=1314.8kbits/s speed=0.0576x elapsed=0:01:50.73    \nframe=  322 fps=2.9 q=57.0 size=    1024KiB time=00:00:06.44 bitrate=1302.6kbits/s speed=0.0579x elapsed=0:01:51.27    \nframe=  324 fps=2.9 q=57.0 size=    1024KiB time=00:00:06.48 bitrate=1294.5kbits/s speed=0.0579x elapsed=0:01:51.83    \nframe=  327 fps=2.9 q=59.0 size=    1024KiB time=00:00:06.52 bitrate=1286.6kbits/s speed=0.058x elapsed=0:01:52.35    \nframe=  329 fps=2.9 q=59.0 size=    1024KiB time=00:00:06.58 bitrate=1274.9kbits/s speed=0.0582x elapsed=0:01:53.01    \nframe=  331 fps=2.9 q=48.0 size=    1024KiB time=00:00:06.60 bitrate=1271.0kbits/s speed=0.0581x elapsed=0:01:53.57    \nframe=  333 fps=2.9 q=56.0 size=    1024KiB time=00:00:06.66 bitrate=1259.6kbits/s speed=0.0584x elapsed=0:01:54.12    \nframe=  336 fps=2.9 q=56.0 size=    1024KiB time=00:00:06.72 bitrate=1248.3kbits/s speed=0.0586x elapsed=0:01:54.66    \nframe=  338 fps=2.9 q=56.0 size=    1024KiB time=00:00:06.76 bitrate=1240.9kbits/s speed=0.0587x elapsed=0:01:55.19    \nframe=  340 fps=2.9 q=55.0 size=    1024KiB time=00:00:06.80 bitrate=1233.6kbits/s speed=0.0588x elapsed=0:01:55.73    \nframe=  342 fps=2.9 q=55.0 size=    1024KiB time=00:00:06.84 bitrate=1226.4kbits/s speed=0.0588x elapsed=0:01:56.25    \nframe=  345 fps=3.0 q=53.0 size=    1024KiB time=00:00:06.90 bitrate=1215.7kbits/s speed=0.0591x elapsed=0:01:56.77    \nframe=  348 fps=3.0 q=53.0 size=    1024KiB time=00:00:06.96 bitrate=1205.3kbits/s speed=0.0593x elapsed=0:01:57.36    \nframe=  350 fps=3.0 q=53.0 size=    1024KiB time=00:00:07.00 bitrate=1198.4kbits/s speed=0.0594x elapsed=0:01:57.88    \nframe=  352 fps=3.0 q=51.0 size=    1024KiB time=00:00:07.04 bitrate=1191.6kbits/s speed=0.0594x elapsed=0:01:58.41    \nframe=  354 fps=3.0 q=52.0 size=    1024KiB time=00:00:07.08 bitrate=1184.8kbits/s speed=0.0595x elapsed=0:01:58.93    \nframe=  356 fps=3.0 q=52.0 size=    1024KiB time=00:00:07.12 bitrate=1178.2kbits/s speed=0.0596x elapsed=0:01:59.47    \nframe=  359 fps=3.0 q=52.0 size=    1024KiB time=00:00:07.18 bitrate=1168.3kbits/s speed=0.0598x elapsed=0:02:00.01    \nframe=  360 fps=3.0 q=52.0 size=    1024KiB time=00:00:07.20 bitrate=1165.1kbits/s speed=0.0597x elapsed=0:02:00.58    \nframe=  362 fps=3.0 q=57.0 size=    1024KiB time=00:00:07.24 bitrate=1158.6kbits/s speed=0.0598x elapsed=0:02:01.13    \nframe=  365 fps=3.0 q=57.0 size=    1024KiB time=00:00:07.30 bitrate=1149.1kbits/s speed=0.06x elapsed=0:02:01.67    \nframe=  368 fps=3.0 q=59.0 size=    1024KiB time=00:00:07.36 bitrate=1139.8kbits/s speed=0.0602x elapsed=0:02:02.23    \nframe=  370 fps=3.0 q=58.0 size=    1024KiB time=00:00:07.40 bitrate=1133.6kbits/s speed=0.0603x elapsed=0:02:02.77    \nframe=  371 fps=3.0 q=59.0 size=    1024KiB time=00:00:07.42 bitrate=1130.5kbits/s speed=0.0602x elapsed=0:02:03.29    \nframe=  373 fps=3.0 q=54.0 size=    1024KiB time=00:00:07.46 bitrate=1124.5kbits/s speed=0.0603x elapsed=0:02:03.81    \nframe=  375 fps=3.0 q=53.0 size=    1024KiB time=00:00:07.50 bitrate=1118.5kbits/s speed=0.0603x elapsed=0:02:04.35    \nframe=  377 fps=3.0 q=54.0 size=    1024KiB time=00:00:07.54 bitrate=1112.5kbits/s speed=0.0604x elapsed=0:02:04.87    \nframe=  378 fps=3.0 q=43.0 size=    1024KiB time=00:00:07.56 bitrate=1109.6kbits/s speed=0.0603x elapsed=0:02:05.43    \nframe=  381 fps=3.0 q=51.0 size=    1024KiB time=00:00:07.60 bitrate=1103.8kbits/s speed=0.0603x elapsed=0:02:05.97    \nframe=  383 fps=3.0 q=51.0 size=    1024KiB time=00:00:07.66 bitrate=1095.1kbits/s speed=0.0605x elapsed=0:02:06.55    \nframe=  384 fps=3.0 q=51.0 size=    1024KiB time=00:00:07.68 bitrate=1092.3kbits/s speed=0.0604x elapsed=0:02:07.08    \nframe=  386 fps=3.0 q=53.0 size=    1792KiB time=00:00:07.72 bitrate=1901.6kbits/s speed=0.0605x elapsed=0:02:07.62    \nframe=  389 fps=3.0 q=53.0 size=    1792KiB time=00:00:07.78 bitrate=1886.9kbits/s speed=0.0607x elapsed=0:02:08.16    \nframe=  392 fps=3.0 q=54.0 size=    1792KiB time=00:00:07.84 bitrate=1872.5kbits/s speed=0.0609x elapsed=0:02:08.68    \nframe=  395 fps=3.1 q=55.0 size=    1792KiB time=00:00:07.90 bitrate=1858.2kbits/s speed=0.0611x elapsed=0:02:09.25    \nframe=  396 fps=3.0 q=45.0 size=    1792KiB time=00:00:07.92 bitrate=1853.5kbits/s speed=0.061x elapsed=0:02:09.83    \nframe=  399 fps=3.1 q=54.0 size=    1792KiB time=00:00:07.98 bitrate=1839.6kbits/s speed=0.0612x elapsed=0:02:10.35    \nframe=  401 fps=3.1 q=55.0 size=    1792KiB time=00:00:08.02 bitrate=1830.4kbits/s speed=0.0613x elapsed=0:02:10.86    \nframe=  402 fps=3.1 q=44.0 size=    1792KiB time=00:00:08.04 bitrate=1825.9kbits/s speed=0.0612x elapsed=0:02:11.43    \nframe=  404 fps=3.1 q=55.0 size=    1792KiB time=00:00:08.08 bitrate=1816.8kbits/s speed=0.0612x elapsed=0:02:11.97    \nframe=  406 fps=3.1 q=55.0 size=    1792KiB time=00:00:08.12 bitrate=1807.9kbits/s speed=0.0613x elapsed=0:02:12.56    \nframe=  408 fps=3.1 q=44.0 size=    1792KiB time=00:00:08.16 bitrate=1799.0kbits/s speed=0.0613x elapsed=0:02:13.07    \nframe=  409 fps=3.1 q=56.0 size=    1792KiB time=00:00:08.18 bitrate=1794.6kbits/s speed=0.0612x elapsed=0:02:13.59    \nframe=  411 fps=3.1 q=55.0 size=    1792KiB time=00:00:08.22 bitrate=1785.9kbits/s speed=0.0613x elapsed=0:02:14.11    \nframe=  413 fps=3.1 q=56.0 size=    1792KiB time=00:00:08.26 bitrate=1777.2kbits/s speed=0.0613x elapsed=0:02:14.66    \nframe=  415 fps=3.1 q=56.0 size=    1792KiB time=00:00:08.30 bitrate=1768.7kbits/s speed=0.0614x elapsed=0:02:15.19    \nframe=  418 fps=3.1 q=55.0 size=    1792KiB time=00:00:08.36 bitrate=1756.0kbits/s speed=0.0616x elapsed=0:02:15.73    \nframe=  419 fps=3.1 q=56.0 size=    1792KiB time=00:00:08.38 bitrate=1751.8kbits/s speed=0.0615x elapsed=0:02:16.32    \nframe=  422 fps=3.1 q=55.0 size=    1792KiB time=00:00:08.44 bitrate=1739.3kbits/s speed=0.0616x elapsed=0:02:16.97    \nframe=  425 fps=3.1 q=57.0 size=    1792KiB time=00:00:08.48 bitrate=1731.1kbits/s speed=0.0617x elapsed=0:02:17.49    \nframe=  425 fps=3.1 q=57.0 size=    1792KiB time=00:00:08.50 bitrate=1727.1kbits/s speed=0.0616x elapsed=0:02:18.08    \nframe=  428 fps=3.1 q=56.0 size=    1792KiB time=00:00:08.54 bitrate=1719.0kbits/s speed=0.0616x elapsed=0:02:18.63    \nframe=  430 fps=3.1 q=57.0 size=    1792KiB time=00:00:08.60 bitrate=1707.0kbits/s speed=0.0618x elapsed=0:02:19.18    \nframe=  432 fps=3.1 q=57.0 size=    1792KiB time=00:00:08.64 bitrate=1699.1kbits/s speed=0.0618x elapsed=0:02:19.69    \nframe=  434 fps=3.1 q=58.0 size=    1792KiB time=00:00:08.68 bitrate=1691.3kbits/s speed=0.0619x elapsed=0:02:20.21    \nframe=  436 fps=3.1 q=58.0 size=    1792KiB time=00:00:08.72 bitrate=1683.5kbits/s speed=0.062x elapsed=0:02:20.74    \nframe=  437 fps=3.1 q=37.0 size=    1792KiB time=00:00:08.74 bitrate=1679.6kbits/s speed=0.0619x elapsed=0:02:21.27    \nframe=  440 fps=3.1 q=59.0 size=    1792KiB time=00:00:08.80 bitrate=1668.2kbits/s speed=0.0621x elapsed=0:02:21.79    \nframe=  442 fps=3.1 q=59.0 size=    1792KiB time=00:00:08.84 bitrate=1660.6kbits/s speed=0.0621x elapsed=0:02:22.30    \nframe=  444 fps=3.1 q=60.0 size=    1792KiB time=00:00:08.88 bitrate=1653.2kbits/s speed=0.0622x elapsed=0:02:22.82    \nframe=  447 fps=3.1 q=60.0 size=    1792KiB time=00:00:08.92 bitrate=1645.7kbits/s speed=0.0622x elapsed=0:02:23.38    \nframe=  448 fps=3.1 q=47.0 size=    1792KiB time=00:00:08.94 bitrate=1642.1kbits/s speed=0.0621x elapsed=0:02:23.95    \nframe=  450 fps=3.1 q=57.0 size=    1792KiB time=00:00:09.00 bitrate=1631.1kbits/s speed=0.0623x elapsed=0:02:24.53    \nframe=  452 fps=3.1 q=57.0 size=    1792KiB time=00:00:09.02 bitrate=1627.5kbits/s speed=0.0622x elapsed=0:02:25.09    \nframe=  453 fps=3.1 q=57.0 size=    1792KiB time=00:00:09.06 bitrate=1620.3kbits/s speed=0.0622x elapsed=0:02:25.67    \nframe=  456 fps=3.1 q=56.0 size=    1792KiB time=00:00:09.12 bitrate=1609.7kbits/s speed=0.0623x elapsed=0:02:26.27    \nframe=  458 fps=3.1 q=56.0 size=    1792KiB time=00:00:09.16 bitrate=1602.6kbits/s speed=0.0624x elapsed=0:02:26.88    \nframe=  459 fps=3.1 q=56.0 size=    1792KiB time=00:00:09.18 bitrate=1599.1kbits/s speed=0.0623x elapsed=0:02:27.41    \nframe=  460 fps=3.1 q=35.0 size=    1792KiB time=00:00:09.20 bitrate=1595.7kbits/s speed=0.0622x elapsed=0:02:28.00    \nframe=  463 fps=3.1 q=59.0 size=    1792KiB time=00:00:09.26 bitrate=1585.3kbits/s speed=0.0623x elapsed=0:02:28.59    \nframe=  466 fps=3.1 q=59.0 size=    1792KiB time=00:00:09.32 bitrate=1575.1kbits/s speed=0.0625x elapsed=0:02:29.14    \nframe=  468 fps=3.1 q=59.0 size=    1792KiB time=00:00:09.36 bitrate=1568.4kbits/s speed=0.0625x elapsed=0:02:29.69    \nframe=  470 fps=3.1 q=59.0 size=    1792KiB time=00:00:09.40 bitrate=1561.7kbits/s speed=0.0625x elapsed=0:02:30.31    \nframe=  471 fps=3.1 q=41.0 size=    1792KiB time=00:00:09.42 bitrate=1558.4kbits/s speed=0.0624x elapsed=0:02:30.85    \nframe=  473 fps=3.1 q=53.0 size=    1792KiB time=00:00:09.46 bitrate=1551.8kbits/s speed=0.0625x elapsed=0:02:31.39    \nframe=  475 fps=3.1 q=55.0 size=    1792KiB time=00:00:09.50 bitrate=1545.3kbits/s speed=0.0625x elapsed=0:02:31.91    \nframe=  476 fps=3.1 q=56.0 size=    1792KiB time=00:00:09.52 bitrate=1542.0kbits/s speed=0.0625x elapsed=0:02:32.43    \nframe=  476 fps=3.1 q=56.0 size=    1792KiB time=00:00:09.52 bitrate=1542.0kbits/s speed=0.0622x elapsed=0:02:32.94    \nframe=  476 fps=3.1 q=56.0 size=    1792KiB time=00:00:09.52 bitrate=1542.0kbits/s speed=0.062x elapsed=0:02:33.46    \nframe=  476 fps=3.1 q=56.0 size=    1792KiB time=00:00:09.52 bitrate=1542.0kbits/s speed=0.0618x elapsed=0:02:33.98    \nframe=  476 fps=3.1 q=56.0 size=    1792KiB time=00:00:09.52 bitrate=1542.0kbits/s speed=0.0616x elapsed=0:02:34.54    \nframe=  476 fps=3.1 q=56.0 size=    1792KiB time=00:00:09.52 bitrate=1542.0kbits/s speed=0.0614x elapsed=0:02:35.13    \nframe=  476 fps=3.1 q=56.0 size=    1792KiB time=00:00:09.52 bitrate=1542.0kbits/s speed=0.0611x elapsed=0:02:35.74    \nframe=  476 fps=3.0 q=56.0 size=    1792KiB time=00:00:09.52 bitrate=1542.0kbits/s speed=0.0609x elapsed=0:02:36.32    \nframe=  476 fps=3.0 q=56.0 size=    1792KiB time=00:00:09.52 bitrate=1542.0kbits/s speed=0.0607x elapsed=0:02:36.83    \nframe=  476 fps=3.0 q=56.0 size=    1792KiB time=00:00:09.52 bitrate=1542.0kbits/s speed=0.0605x elapsed=0:02:37.36    \nframe=  476 fps=3.0 q=56.0 size=    1792KiB time=00:00:09.52 bitrate=1542.0kbits/s speed=0.0603x elapsed=0:02:37.87    \nframe=  476 fps=3.0 q=56.0 size=    1792KiB time=00:00:09.52 bitrate=1542.0kbits/s speed=0.0601x elapsed=0:02:38.46    \nframe=  476 fps=3.0 q=56.0 size=    1792KiB time=00:00:09.52 bitrate=1542.0kbits/s speed=0.0599x elapsed=0:02:39.05    \nframe=  476 fps=3.0 q=56.0 size=    1792KiB time=00:00:09.52 bitrate=1542.0kbits/s speed=0.0596x elapsed=0:02:39.60    \n[out#0/webm @ 000001aa96ed9a40] video:2574KiB audio:0KiB subtitle:0KiB other streams:0KiB global headers:0KiB muxing overhead: 0.156911%\nframe=  500 fps=3.1 q=56.0 Lsize=    2578KiB time=00:00:10.00 bitrate=2112.0kbits/s speed=0.0626x elapsed=0:02:39.65    \n",
  "seconds": 160.28199553489685,
  "probe_out": {}
}